<svg width="17" height="17" viewBox="0 0 17 17" fill="none" xmlns="http://www.w3.org/2000/svg">
<path fill-rule="evenodd" clip-rule="evenodd" d="M2.42857 0C1.78447 0 1.16676 0.255867 0.711312 0.711312C0.255867 1.16676 0 1.78447 0 2.42857V14.5714C0 15.2155 0.255867 15.8332 0.711312 16.2887C1.16676 16.7441 1.78447 17 2.42857 17H14.5714C15.2155 17 15.8332 16.7441 16.2887 16.2887C16.7441 15.8332 17 15.2155 17 14.5714V2.42857C17 1.78447 16.7441 1.16676 16.2887 0.711312C15.8332 0.255867 15.2155 0 14.5714 0H2.42857ZM3.76671 5.21779C4.15156 5.21779 4.52065 5.06491 4.79278 4.79278C5.06491 4.52065 5.21779 4.15156 5.21779 3.76671C5.21779 3.38187 5.06491 3.01278 4.79278 2.74065C4.52065 2.46852 4.15156 2.31564 3.76671 2.31564C3.38187 2.31564 3.01278 2.46852 2.74065 2.74065C2.46852 3.01278 2.31564 3.38187 2.31564 3.76671C2.31564 4.15156 2.46852 4.52065 2.74065 4.79278C3.01278 5.06491 3.38187 5.21779 3.76671 5.21779ZM4.981 14.3444V6.35557H2.55243V14.3444H4.981ZM6.59357 6.35557H9.02214V7.42536C9.38036 6.86436 10.1672 6.10907 11.6304 6.10907C13.3766 6.10907 14.3249 7.26629 14.3249 9.46779C14.3249 9.57343 14.3346 10.0555 14.3346 10.0555V14.3431H11.9061V10.0567C11.9061 9.46779 11.7822 8.31057 10.4732 8.31057C9.163 8.31057 9.0525 9.76529 9.02214 10.7173V14.3431H6.59357V6.35557Z" fill="#F8F2EC"/>
</svg>
