<svg width="17" height="17" viewBox="0 0 17 17" fill="none" xmlns="http://www.w3.org/2000/svg">
<path d="M8.5 0C6.81886 0 5.17547 0.498516 3.77766 1.43251C2.37984 2.3665 1.29037 3.69402 0.647028 5.24719C0.00368291 6.80036 -0.164645 8.50943 0.163329 10.1583C0.491303 11.8071 1.30085 13.3217 2.4896 14.5104C3.67834 15.6992 5.1929 16.5087 6.84174 16.8367C8.49057 17.1646 10.1996 16.9963 11.7528 16.353C13.306 15.7096 14.6335 14.6202 15.5675 13.2223C16.5015 11.8245 17 10.1811 17 8.5C16.9977 6.24635 16.1015 4.08565 14.5079 2.49208C12.9144 0.898506 10.7537 0.00225028 8.5 0ZM13.5482 6.55605V7.10515C13.5482 7.14717 13.5398 7.18878 13.5234 7.2275C13.5071 7.26622 13.4832 7.30128 13.4531 7.33059C13.4229 7.35991 13.3873 7.3829 13.3481 7.39819C13.309 7.41349 13.2672 7.42078 13.2252 7.41965C12.3277 7.35604 11.4692 7.02836 10.7576 6.47785V10.4966C10.7575 10.9414 10.6687 11.3818 10.4965 11.7919C10.3243 12.202 10.0721 12.5736 9.7546 12.8851C9.43427 13.2044 9.05361 13.4568 8.63479 13.6275C8.21597 13.7983 7.76737 13.884 7.3151 13.8796C6.40554 13.8781 5.53259 13.5212 4.8824 12.8851C4.46879 12.4681 4.17086 11.9506 4.01795 11.3835C3.86504 10.8164 3.8624 10.2193 4.0103 9.6509C4.14545 9.1052 4.4183 8.6037 4.80335 8.19485C5.09051 7.84387 5.45247 7.56151 5.86279 7.36841C6.2731 7.17532 6.72138 7.07637 7.17485 7.0788H7.87185V8.52635C7.87216 8.56839 7.8635 8.61001 7.84646 8.64844C7.82941 8.68687 7.80437 8.72123 7.773 8.74922C7.74163 8.77721 7.70466 8.79819 7.66454 8.81077C7.62442 8.82334 7.58209 8.82722 7.54035 8.82215C7.13566 8.70059 6.69958 8.74091 6.32403 8.93461C5.94849 9.12831 5.66282 9.46025 5.52725 9.86047C5.39168 10.2607 5.41679 10.6979 5.5973 11.08C5.7778 11.462 6.0996 11.7591 6.49485 11.9085C6.72435 12.0402 6.98105 12.1176 7.24455 12.1354C7.44855 12.1439 7.65255 12.1184 7.84635 12.0572C8.17002 11.9483 8.45158 11.741 8.65167 11.4642C8.85176 11.1875 8.9604 10.8552 8.9624 10.5136V3.1909C8.96229 3.15076 8.9701 3.11098 8.98539 3.07386C9.00067 3.03674 9.02313 3.003 9.05148 2.97458C9.07982 2.94615 9.1135 2.9236 9.15058 2.90821C9.18766 2.89282 9.22741 2.8849 9.26755 2.8849H10.4703C10.5485 2.88479 10.6238 2.91471 10.6806 2.96849C10.7373 3.02227 10.7713 3.0958 10.7755 3.1739C10.8194 3.5489 10.9386 3.91118 11.1258 4.23907C11.3131 4.56695 11.5645 4.85369 11.8652 5.08215C12.2715 5.38721 12.7542 5.57426 13.26 5.62275C13.3358 5.62923 13.4066 5.66294 13.4594 5.71763C13.5123 5.77233 13.5435 5.84431 13.5473 5.92025L13.5482 6.55605Z" fill="#F8F2EC"/>
</svg>
