<svg width="12" height="12" viewBox="0 0 12 12" fill="none" xmlns="http://www.w3.org/2000/svg">
<path fill-rule="evenodd" clip-rule="evenodd" d="M1.71429 0C1.25963 0 0.823594 0.180612 0.502103 0.502103C0.180612 0.823594 0 1.25963 0 1.71429V10.2857C0 10.7404 0.180612 11.1764 0.502103 11.4979C0.823594 11.8194 1.25963 12 1.71429 12H10.2857C10.7404 12 11.1764 11.8194 11.4979 11.4979C11.8194 11.1764 12 10.7404 12 10.2857V1.71429C12 1.25963 11.8194 0.823594 11.4979 0.502103C11.1764 0.180612 10.7404 0 10.2857 0H1.71429ZM2.65886 3.68314C2.93051 3.68314 3.19105 3.57523 3.38314 3.38314C3.57523 3.19105 3.68314 2.93051 3.68314 2.65886C3.68314 2.3872 3.57523 2.12667 3.38314 1.93458C3.19105 1.74249 2.93051 1.63457 2.65886 1.63457C2.3872 1.63457 2.12667 1.74249 1.93458 1.93458C1.74249 2.12667 1.63457 2.3872 1.63457 2.65886C1.63457 2.93051 1.74249 3.19105 1.93458 3.38314C2.12667 3.57523 2.3872 3.68314 2.65886 3.68314ZM3.516 10.1254V4.48629H1.80171V10.1254H3.516ZM4.65429 4.48629H6.36857V5.24143C6.62143 4.84543 7.17686 4.31229 8.20971 4.31229C9.44229 4.31229 10.1117 5.12914 10.1117 6.68314C10.1117 6.75771 10.1186 7.098 10.1186 7.098V10.1246H8.40429V7.09886C8.40429 6.68314 8.31686 5.86629 7.39286 5.86629C6.468 5.86629 6.39 6.89314 6.36857 7.56514V10.1246H4.65429V4.48629Z" fill="#F8F2EC"/>
</svg>
