<svg width="12" height="12" viewBox="0 0 12 12" fill="none" xmlns="http://www.w3.org/2000/svg">
<path d="M6 0C4.81331 0 3.65328 0.351894 2.66658 1.01118C1.67989 1.67047 0.910851 2.60754 0.456725 3.7039C0.0025997 4.80026 -0.11622 6.00665 0.115291 7.17054C0.346802 8.33443 0.918247 9.40352 1.75736 10.2426C2.59648 11.0818 3.66557 11.6532 4.82946 11.8847C5.99335 12.1162 7.19975 11.9974 8.2961 11.5433C9.39246 11.0892 10.3295 10.3201 10.9888 9.33342C11.6481 8.34673 12 7.18669 12 6C11.9984 4.40919 11.3658 2.88399 10.2409 1.75911C9.11601 0.634239 7.59081 0.00158843 6 0ZM9.5634 4.6278V5.0154C9.56341 5.04506 9.55748 5.07443 9.54595 5.10176C9.53442 5.1291 9.51753 5.15384 9.49627 5.17454C9.47502 5.19523 9.44983 5.21146 9.4222 5.22225C9.39457 5.23305 9.36506 5.2382 9.3354 5.2374C8.70193 5.1925 8.0959 4.96119 7.5936 4.5726V7.4094C7.59353 7.72337 7.53088 8.03418 7.40932 8.32367C7.28775 8.61315 7.10971 8.87551 6.8856 9.0954C6.65948 9.32078 6.39078 9.49892 6.09515 9.61944C5.79951 9.73996 5.48285 9.80046 5.1636 9.7974C4.52156 9.79628 3.90536 9.54437 3.4464 9.0954C3.15444 8.80104 2.94414 8.43574 2.8362 8.03544C2.72826 7.63514 2.7264 7.21364 2.8308 6.8124C2.9262 6.4272 3.1188 6.0732 3.3906 5.7846C3.5933 5.53685 3.84881 5.33754 4.13844 5.20123C4.42807 5.06493 4.7445 4.99508 5.0646 4.9968H5.5566V6.0186C5.55682 6.04827 5.55071 6.07766 5.53868 6.10478C5.52664 6.13191 5.50897 6.15616 5.48682 6.17592C5.46468 6.19568 5.43858 6.21049 5.41026 6.21937C5.38195 6.22824 5.35206 6.23098 5.3226 6.2274C5.03694 6.14159 4.72911 6.17005 4.46402 6.30678C4.19893 6.44351 3.99729 6.67782 3.90159 6.96033C3.80589 7.24283 3.82362 7.55146 3.95103 7.82115C4.07845 8.09084 4.3056 8.30052 4.5846 8.406C4.7466 8.499 4.9278 8.5536 5.1138 8.5662C5.2578 8.5722 5.4018 8.5542 5.5386 8.511C5.76707 8.43411 5.96582 8.28776 6.10706 8.09241C6.2483 7.89706 6.32499 7.66246 6.3264 7.4214V2.2524C6.32632 2.22406 6.33184 2.19599 6.34263 2.16979C6.35342 2.14358 6.36927 2.11977 6.38928 2.0997C6.40929 2.07964 6.43306 2.06372 6.45923 2.05285C6.48541 2.04199 6.51346 2.0364 6.5418 2.0364H7.3908C7.44601 2.03632 7.49914 2.05744 7.53922 2.09541C7.5793 2.13337 7.60328 2.18527 7.6062 2.2404C7.63725 2.50511 7.72137 2.76084 7.85354 2.99228C7.98571 3.22373 8.1632 3.42614 8.3754 3.5874C8.66226 3.80273 9.00295 3.93477 9.36 3.969C9.41348 3.97357 9.46349 3.99737 9.50078 4.03598C9.53806 4.07458 9.5601 4.12539 9.5628 4.179L9.5634 4.6278Z" fill="#F8F2EC"/>
</svg>
