<svg width="443" height="443" viewBox="0 0 443 443" fill="none" xmlns="http://www.w3.org/2000/svg">
<g clip-path="url(#clip0_80_231)">
<rect width="443" height="443" fill="#F8F2EC"/>
<rect x="370.016" y="122.77" width="55.6626" height="56.0301" rx="27.8313" transform="rotate(90 370.016 122.77)" fill="#FDA26B"/>
<rect x="370.016" y="196.334" width="55.3617" height="56.0301" rx="27.6808" transform="rotate(90 370.016 196.334)" fill="#E673A9"/>
<rect x="370.016" y="269.448" width="55.6626" height="56.0301" rx="27.8313" transform="rotate(90 370.016 269.448)" fill="#F8DAD0"/>
<rect x="213.667" y="124.936" width="55.3617" height="56.0301" rx="27.6808" transform="rotate(90 213.667 124.936)" fill="#D5CB2C"/>
<rect x="291.679" y="122.77" width="55.6626" height="56.0301" rx="27.8313" transform="rotate(90 291.679 122.77)" fill="#F38143"/>
<rect x="291.679" y="196.334" width="55.3617" height="56.0301" rx="27.6808" transform="rotate(90 291.679 196.334)" fill="#308B7B"/>
<rect x="291.679" y="269.448" width="55.6626" height="56.0301" rx="27.8313" transform="rotate(90 291.679 269.448)" fill="#FFABDA"/>
<rect x="135.329" y="198.049" width="55.6626" height="56.0301" rx="27.8313" transform="rotate(90 135.329 198.049)" fill="#D6A6DC"/>
<rect x="213.667" y="198.049" width="55.6626" height="56.0301" rx="27.8313" transform="rotate(90 213.667 198.049)" fill="#50B09F"/>
<rect x="135.329" y="269.637" width="55.6626" height="56.0301" rx="27.8313" transform="rotate(90 135.329 269.637)" fill="#C1D8D3"/>
<rect x="213.667" y="269.637" width="55.6626" height="56.0301" rx="27.8313" transform="rotate(90 213.667 269.637)" fill="#A6A646"/>
<rect x="135.592" y="124.936" width="55.3617" height="56.1613" rx="27.6808" transform="rotate(90 135.592 124.936)" fill="#FFA08B"/>
<rect x="364.716" y="118" width="55.6626" height="56.0301" rx="27.8313" transform="rotate(90 364.716 118)" fill="#A6A646"/>
<rect x="364.716" y="191.565" width="55.3617" height="56.0301" rx="27.6808" transform="rotate(90 364.716 191.565)" fill="#FDA26B"/>
<rect x="364.716" y="264.678" width="55.6626" height="56.0301" rx="27.8313" transform="rotate(90 364.716 264.678)" fill="#D6A6DC"/>
<rect x="208.366" y="120.166" width="55.3617" height="56.0301" rx="27.6808" transform="rotate(90 208.366 120.166)" fill="#308B7B"/>
<rect x="286.377" y="118" width="55.6626" height="56.0301" rx="27.8313" transform="rotate(90 286.377 118)" fill="#FFABDA"/>
<rect x="286.377" y="191.565" width="55.3617" height="56.0301" rx="27.6808" transform="rotate(90 286.377 191.565)" fill="#BCD1D4"/>
<rect x="286.377" y="264.678" width="55.6626" height="56.0301" rx="27.8313" transform="rotate(90 286.377 264.678)" fill="#F38143"/>
<rect x="130.03" y="193.28" width="55.6626" height="56.0301" rx="27.8313" transform="rotate(90 130.03 193.28)" fill="#D5CB2C"/>
<rect x="208.366" y="193.28" width="55.6626" height="56.0301" rx="27.8313" transform="rotate(90 208.366 193.28)" fill="#FFA08B"/>
<rect x="130.03" y="264.868" width="55.6626" height="56.0301" rx="27.8313" transform="rotate(90 130.03 264.868)" fill="#50B09F"/>
<rect x="208.366" y="264.868" width="55.6626" height="56.0301" rx="27.8313" transform="rotate(90 208.366 264.868)" fill="#E673A9"/>
<rect x="130.293" y="120.166" width="55.3617" height="56.1613" rx="27.6808" transform="rotate(90 130.293 120.166)" fill="#F8DAD0"/>
</g>
<defs>
<clipPath id="clip0_80_231">
<rect width="443" height="443" fill="white"/>
</clipPath>
</defs>
</svg>
