<svg width="20" height="20" viewBox="0 0 20 20" fill="none" xmlns="http://www.w3.org/2000/svg">
<path d="M10 0C8.02219 0 6.08879 0.58649 4.4443 1.6853C2.79981 2.78412 1.51809 4.3459 0.761209 6.17317C0.00433284 8.00043 -0.193701 10.0111 0.192152 11.9509C0.578004 13.8907 1.53041 15.6725 2.92894 17.0711C4.32746 18.4696 6.10929 19.422 8.0491 19.8079C9.98891 20.1937 11.9996 19.9957 13.8268 19.2388C15.6541 18.4819 17.2159 17.2002 18.3147 15.5557C19.4135 13.9112 20 11.9778 20 10C19.9974 7.34865 18.9429 4.80665 17.0681 2.93186C15.1934 1.05707 12.6514 0.00264738 10 0ZM15.939 7.713V8.359C15.939 8.40844 15.9291 8.45739 15.9099 8.50294C15.8907 8.5485 15.8625 8.58974 15.8271 8.62423C15.7917 8.65872 15.7497 8.68576 15.7037 8.70376C15.6576 8.72175 15.6084 8.73034 15.559 8.729C14.5032 8.65417 13.4932 8.26866 12.656 7.621V12.349C12.6559 12.8723 12.5515 13.3903 12.3489 13.8728C12.1463 14.3553 11.8495 14.7925 11.476 15.159C11.0991 15.5346 10.6513 15.8315 10.1586 16.0324C9.66585 16.2333 9.13808 16.3341 8.606 16.329C7.53594 16.3271 6.50894 15.9073 5.744 15.159C5.2574 14.6684 4.9069 14.0596 4.727 13.3924C4.5471 12.7252 4.544 12.0227 4.718 11.354C4.877 10.712 5.198 10.122 5.651 9.641C5.98883 9.22809 6.41468 8.8959 6.8974 8.66872C7.38012 8.44155 7.90751 8.32514 8.441 8.328H9.261V10.031C9.26137 10.0805 9.25118 10.1294 9.23113 10.1746C9.21107 10.2199 9.18161 10.2603 9.14471 10.2932C9.1078 10.3261 9.0643 10.3508 9.01711 10.3656C8.96991 10.3804 8.9201 10.385 8.87101 10.379C8.3949 10.236 7.88186 10.2834 7.44004 10.5113C6.99822 10.7392 6.66214 11.1297 6.50265 11.6006C6.34315 12.0714 6.37269 12.5858 6.58505 13.0353C6.79742 13.4847 7.176 13.8342 7.641 14.01C7.911 14.165 8.213 14.256 8.523 14.277C8.763 14.287 9.003 14.257 9.231 14.185C9.61179 14.0568 9.94303 13.8129 10.1784 13.4873C10.4138 13.1618 10.5417 12.7708 10.544 12.369V3.754C10.5439 3.70677 10.5531 3.65998 10.571 3.61631C10.589 3.57264 10.6154 3.53294 10.6488 3.4995C10.6821 3.46606 10.7218 3.43953 10.7654 3.42142C10.809 3.40332 10.8558 3.394 10.903 3.394H12.318C12.41 3.39387 12.4986 3.42907 12.5654 3.49234C12.6322 3.55561 12.6721 3.64212 12.677 3.734C12.7288 4.17518 12.869 4.60139 13.0892 4.98714C13.3095 5.37288 13.6053 5.71023 13.959 5.979C14.4371 6.33789 15.0049 6.55796 15.6 6.615C15.6891 6.62262 15.7725 6.66228 15.8346 6.72663C15.8968 6.79098 15.9335 6.87566 15.938 6.965L15.939 7.713Z" fill="#F8F2EC"/>
</svg>
